<mxfile host="drawio-plugin" modified="2024-04-15T08:27:01.828Z" agent="5.0 (Windows NT 10.0; Win64; x64) AppleWebKit/537.36 (KHTML, like Gecko) Chrome/111.0.0.0 Safari/537.36" etag="uUQQV1s64FO0hMTFyHDe" version="20.5.3" type="embed"><diagram name="Seite-1" id="LjB-i_eHEpoRU6f7V7tT"><mxGraphModel dx="1305" dy="1098" grid="1" gridSize="10" guides="1" tooltips="1" connect="1" arrows="1" fold="1" page="1" pageScale="1" pageWidth="1600" pageHeight="900" math="0" shadow="0"><root><mxCell id="0"/><mxCell id="1" parent="0"/><mxCell id="gEE5Lv9PwWFWXy02JMvF-1" value="Weapon" style="swimlane;fontStyle=1;align=center;verticalAlign=top;childLayout=stackLayout;horizontal=1;startSize=26;horizontalStack=0;resizeParent=1;resizeParentMax=0;resizeLast=0;collapsible=1;marginBottom=0;whiteSpace=wrap;html=1;rounded=0;" parent="1" vertex="1"><mxGeometry x="1120" y="40" width="200" height="112" as="geometry"/></mxCell><mxCell id="gEE5Lv9PwWFWXy02JMvF-2" value="+ reload&amp;nbsp;&lt;span style=&quot;background-color: initial;&quot;&gt;time: float&lt;/span&gt;" style="text;strokeColor=none;fillColor=none;align=left;verticalAlign=top;spacingLeft=4;spacingRight=4;overflow=hidden;rotatable=0;points=[[0,0.5],[1,0.5]];portConstraint=eastwest;whiteSpace=wrap;html=1;rounded=0;" parent="gEE5Lv9PwWFWXy02JMvF-1" vertex="1"><mxGeometry y="26" width="200" height="26" as="geometry"/></mxCell><mxCell id="gEE5Lv9PwWFWXy02JMvF-5" value="+ magazine size: int" style="text;strokeColor=none;fillColor=none;align=left;verticalAlign=top;spacingLeft=4;spacingRight=4;overflow=hidden;rotatable=0;points=[[0,0.5],[1,0.5]];portConstraint=eastwest;whiteSpace=wrap;html=1;rounded=0;" parent="gEE5Lv9PwWFWXy02JMvF-1" vertex="1"><mxGeometry y="52" width="200" height="26" as="geometry"/></mxCell><mxCell id="gEE5Lv9PwWFWXy02JMvF-3" value="" style="line;strokeWidth=1;fillColor=none;align=left;verticalAlign=middle;spacingTop=-1;spacingLeft=3;spacingRight=3;rotatable=0;labelPosition=right;points=[];portConstraint=eastwest;strokeColor=inherit;rounded=0;" parent="gEE5Lv9PwWFWXy02JMvF-1" vertex="1"><mxGeometry y="78" width="200" height="8" as="geometry"/></mxCell><mxCell id="gEE5Lv9PwWFWXy02JMvF-4" value="+ shoot(x: float, y: float): Bullet&lt;div&gt;&lt;br&gt;&lt;/div&gt;" style="text;strokeColor=none;fillColor=none;align=left;verticalAlign=top;spacingLeft=4;spacingRight=4;overflow=hidden;rotatable=0;points=[[0,0.5],[1,0.5]];portConstraint=eastwest;whiteSpace=wrap;html=1;rounded=0;" parent="gEE5Lv9PwWFWXy02JMvF-1" vertex="1"><mxGeometry y="86" width="200" height="26" as="geometry"/></mxCell><mxCell id="gEE5Lv9PwWFWXy02JMvF-10" value="DefaultWeapon" style="swimlane;fontStyle=1;align=center;verticalAlign=top;childLayout=stackLayout;horizontal=1;startSize=26;horizontalStack=0;resizeParent=1;resizeParentMax=0;resizeLast=0;collapsible=1;marginBottom=0;whiteSpace=wrap;html=1;rounded=0;" parent="1" vertex="1"><mxGeometry x="880" y="230" width="200" height="60" as="geometry"/></mxCell><mxCell id="gEE5Lv9PwWFWXy02JMvF-13" value="" style="line;strokeWidth=1;fillColor=none;align=left;verticalAlign=middle;spacingTop=-1;spacingLeft=3;spacingRight=3;rotatable=0;labelPosition=right;points=[];portConstraint=eastwest;strokeColor=inherit;rounded=0;" parent="gEE5Lv9PwWFWXy02JMvF-10" vertex="1"><mxGeometry y="26" width="200" height="8" as="geometry"/></mxCell><mxCell id="gEE5Lv9PwWFWXy02JMvF-14" value="+ shoot(x: float, y: float): Bullet&lt;div&gt;&lt;br&gt;&lt;/div&gt;" style="text;strokeColor=none;fillColor=none;align=left;verticalAlign=top;spacingLeft=4;spacingRight=4;overflow=hidden;rotatable=0;points=[[0,0.5],[1,0.5]];portConstraint=eastwest;whiteSpace=wrap;html=1;rounded=0;" parent="gEE5Lv9PwWFWXy02JMvF-10" vertex="1"><mxGeometry y="34" width="200" height="26" as="geometry"/></mxCell><mxCell id="gEE5Lv9PwWFWXy02JMvF-16" value="Rocket&lt;span style=&quot;background-color: initial;&quot;&gt;Weapon&lt;/span&gt;" style="swimlane;fontStyle=1;align=center;verticalAlign=top;childLayout=stackLayout;horizontal=1;startSize=26;horizontalStack=0;resizeParent=1;resizeParentMax=0;resizeLast=0;collapsible=1;marginBottom=0;whiteSpace=wrap;html=1;rounded=0;" parent="1" vertex="1"><mxGeometry x="1120" y="230" width="200" height="60" as="geometry"/></mxCell><mxCell id="gEE5Lv9PwWFWXy02JMvF-17" value="" style="line;strokeWidth=1;fillColor=none;align=left;verticalAlign=middle;spacingTop=-1;spacingLeft=3;spacingRight=3;rotatable=0;labelPosition=right;points=[];portConstraint=eastwest;strokeColor=inherit;rounded=0;" parent="gEE5Lv9PwWFWXy02JMvF-16" vertex="1"><mxGeometry y="26" width="200" height="8" as="geometry"/></mxCell><mxCell id="gEE5Lv9PwWFWXy02JMvF-18" value="+ shoot(x: float, y: float): Bullet&lt;div&gt;&lt;br&gt;&lt;/div&gt;" style="text;strokeColor=none;fillColor=none;align=left;verticalAlign=top;spacingLeft=4;spacingRight=4;overflow=hidden;rotatable=0;points=[[0,0.5],[1,0.5]];portConstraint=eastwest;whiteSpace=wrap;html=1;rounded=0;" parent="gEE5Lv9PwWFWXy02JMvF-16" vertex="1"><mxGeometry y="34" width="200" height="26" as="geometry"/></mxCell><mxCell id="gEE5Lv9PwWFWXy02JMvF-19" value="&lt;span style=&quot;background-color: initial;&quot;&gt;TripleWeapon&lt;/span&gt;" style="swimlane;fontStyle=1;align=center;verticalAlign=top;childLayout=stackLayout;horizontal=1;startSize=26;horizontalStack=0;resizeParent=1;resizeParentMax=0;resizeLast=0;collapsible=1;marginBottom=0;whiteSpace=wrap;html=1;rounded=0;" parent="1" vertex="1"><mxGeometry x="1360" y="230" width="200" height="60" as="geometry"/></mxCell><mxCell id="gEE5Lv9PwWFWXy02JMvF-20" value="" style="line;strokeWidth=1;fillColor=none;align=left;verticalAlign=middle;spacingTop=-1;spacingLeft=3;spacingRight=3;rotatable=0;labelPosition=right;points=[];portConstraint=eastwest;strokeColor=inherit;rounded=0;" parent="gEE5Lv9PwWFWXy02JMvF-19" vertex="1"><mxGeometry y="26" width="200" height="8" as="geometry"/></mxCell><mxCell id="gEE5Lv9PwWFWXy02JMvF-21" value="+ shoot(x: float, y: float): Bullet&lt;div&gt;&lt;br&gt;&lt;/div&gt;" style="text;strokeColor=none;fillColor=none;align=left;verticalAlign=top;spacingLeft=4;spacingRight=4;overflow=hidden;rotatable=0;points=[[0,0.5],[1,0.5]];portConstraint=eastwest;whiteSpace=wrap;html=1;rounded=0;" parent="gEE5Lv9PwWFWXy02JMvF-19" vertex="1"><mxGeometry y="34" width="200" height="26" as="geometry"/></mxCell><mxCell id="gEE5Lv9PwWFWXy02JMvF-22" value="" style="endArrow=block;endSize=16;endFill=0;html=1;rounded=0;exitX=0.5;exitY=0;exitDx=0;exitDy=0;entryX=0.5;entryY=1.038;entryDx=0;entryDy=0;entryPerimeter=0;" parent="1" source="gEE5Lv9PwWFWXy02JMvF-16" target="gEE5Lv9PwWFWXy02JMvF-4" edge="1"><mxGeometry x="-0.75" y="10" width="160" relative="1" as="geometry"><mxPoint x="1310" y="400" as="sourcePoint"/><mxPoint x="1220" y="160" as="targetPoint"/><mxPoint as="offset"/></mxGeometry></mxCell><mxCell id="gEE5Lv9PwWFWXy02JMvF-23" value="" style="endArrow=none;html=1;rounded=0;exitX=0.5;exitY=0;exitDx=0;exitDy=0;" parent="1" source="gEE5Lv9PwWFWXy02JMvF-19" edge="1"><mxGeometry width="50" height="50" relative="1" as="geometry"><mxPoint x="1440" y="210" as="sourcePoint"/><mxPoint x="1460" y="200" as="targetPoint"/></mxGeometry></mxCell><mxCell id="gEE5Lv9PwWFWXy02JMvF-24" value="" style="endArrow=none;html=1;rounded=0;exitX=0.5;exitY=0;exitDx=0;exitDy=0;" parent="1" source="gEE5Lv9PwWFWXy02JMvF-10" edge="1"><mxGeometry width="50" height="50" relative="1" as="geometry"><mxPoint x="979.8299999999999" y="210" as="sourcePoint"/><mxPoint x="980" y="200" as="targetPoint"/></mxGeometry></mxCell><mxCell id="gEE5Lv9PwWFWXy02JMvF-25" value="" style="endArrow=none;html=1;rounded=0;" parent="1" edge="1"><mxGeometry width="50" height="50" relative="1" as="geometry"><mxPoint x="980" y="200" as="sourcePoint"/><mxPoint x="1460" y="200" as="targetPoint"/></mxGeometry></mxCell><mxCell id="gEE5Lv9PwWFWXy02JMvF-26" value="Bullet&lt;div&gt;&lt;br&gt;&lt;/div&gt;" style="swimlane;fontStyle=1;align=center;verticalAlign=top;childLayout=stackLayout;horizontal=1;startSize=26;horizontalStack=0;resizeParent=1;resizeParentMax=0;resizeLast=0;collapsible=1;marginBottom=0;whiteSpace=wrap;html=1;rounded=0;" parent="1" vertex="1"><mxGeometry x="600" y="440" width="200" height="164" as="geometry"/></mxCell><mxCell id="gEE5Lv9PwWFWXy02JMvF-27" value="+ speed: int" style="text;strokeColor=none;fillColor=none;align=left;verticalAlign=top;spacingLeft=4;spacingRight=4;overflow=hidden;rotatable=0;points=[[0,0.5],[1,0.5]];portConstraint=eastwest;whiteSpace=wrap;html=1;rounded=0;" parent="gEE5Lv9PwWFWXy02JMvF-26" vertex="1"><mxGeometry y="26" width="200" height="26" as="geometry"/></mxCell><mxCell id="gEE5Lv9PwWFWXy02JMvF-30" value="+ damage: int" style="text;strokeColor=none;fillColor=none;align=left;verticalAlign=top;spacingLeft=4;spacingRight=4;overflow=hidden;rotatable=0;points=[[0,0.5],[1,0.5]];portConstraint=eastwest;whiteSpace=wrap;html=1;rounded=0;" parent="gEE5Lv9PwWFWXy02JMvF-26" vertex="1"><mxGeometry y="52" width="200" height="26" as="geometry"/></mxCell><mxCell id="gEE5Lv9PwWFWXy02JMvF-31" value="+ hitbox: Hitbox" style="text;strokeColor=none;fillColor=none;align=left;verticalAlign=top;spacingLeft=4;spacingRight=4;overflow=hidden;rotatable=0;points=[[0,0.5],[1,0.5]];portConstraint=eastwest;whiteSpace=wrap;html=1;rounded=0;" parent="gEE5Lv9PwWFWXy02JMvF-26" vertex="1"><mxGeometry y="78" width="200" height="26" as="geometry"/></mxCell><mxCell id="gEE5Lv9PwWFWXy02JMvF-28" value="" style="line;strokeWidth=1;fillColor=none;align=left;verticalAlign=middle;spacingTop=-1;spacingLeft=3;spacingRight=3;rotatable=0;labelPosition=right;points=[];portConstraint=eastwest;strokeColor=inherit;rounded=0;" parent="gEE5Lv9PwWFWXy02JMvF-26" vertex="1"><mxGeometry y="104" width="200" height="8" as="geometry"/></mxCell><mxCell id="gEE5Lv9PwWFWXy02JMvF-29" value="+ set_position(x: float, y:float)" style="text;strokeColor=none;fillColor=none;align=left;verticalAlign=top;spacingLeft=4;spacingRight=4;overflow=hidden;rotatable=0;points=[[0,0.5],[1,0.5]];portConstraint=eastwest;whiteSpace=wrap;html=1;rounded=0;" parent="gEE5Lv9PwWFWXy02JMvF-26" vertex="1"><mxGeometry y="112" width="200" height="26" as="geometry"/></mxCell><mxCell id="gEE5Lv9PwWFWXy02JMvF-32" value="+ move(x:float, y:float)" style="text;strokeColor=none;fillColor=none;align=left;verticalAlign=top;spacingLeft=4;spacingRight=4;overflow=hidden;rotatable=0;points=[[0,0.5],[1,0.5]];portConstraint=eastwest;whiteSpace=wrap;html=1;rounded=0;" parent="gEE5Lv9PwWFWXy02JMvF-26" vertex="1"><mxGeometry y="138" width="200" height="26" as="geometry"/></mxCell><mxCell id="eLap9Rx4vX79RVpMXeGD-1" value="Asteroid" style="swimlane;fontStyle=1;align=center;verticalAlign=top;childLayout=stackLayout;horizontal=1;startSize=26;horizontalStack=0;resizeParent=1;resizeParentMax=0;resizeLast=0;collapsible=1;marginBottom=0;whiteSpace=wrap;html=1;rounded=0;" parent="1" vertex="1"><mxGeometry x="600" y="640" width="200" height="268" as="geometry"/></mxCell><mxCell id="eLap9Rx4vX79RVpMXeGD-2" value="+ speed: int" style="text;strokeColor=none;fillColor=none;align=left;verticalAlign=top;spacingLeft=4;spacingRight=4;overflow=hidden;rotatable=0;points=[[0,0.5],[1,0.5]];portConstraint=eastwest;whiteSpace=wrap;html=1;rounded=0;" parent="eLap9Rx4vX79RVpMXeGD-1" vertex="1"><mxGeometry y="26" width="200" height="26" as="geometry"/></mxCell><mxCell id="eLap9Rx4vX79RVpMXeGD-6" value="+ damage: int" style="text;strokeColor=none;fillColor=none;align=left;verticalAlign=top;spacingLeft=4;spacingRight=4;overflow=hidden;rotatable=0;points=[[0,0.5],[1,0.5]];portConstraint=eastwest;whiteSpace=wrap;html=1;rounded=0;" parent="eLap9Rx4vX79RVpMXeGD-1" vertex="1"><mxGeometry y="52" width="200" height="26" as="geometry"/></mxCell><mxCell id="eLap9Rx4vX79RVpMXeGD-7" value="+ hp max: int" style="text;strokeColor=none;fillColor=none;align=left;verticalAlign=top;spacingLeft=4;spacingRight=4;overflow=hidden;rotatable=0;points=[[0,0.5],[1,0.5]];portConstraint=eastwest;whiteSpace=wrap;html=1;rounded=0;" parent="eLap9Rx4vX79RVpMXeGD-1" vertex="1"><mxGeometry y="78" width="200" height="26" as="geometry"/></mxCell><mxCell id="eLap9Rx4vX79RVpMXeGD-8" value="+ hp current: int" style="text;strokeColor=none;fillColor=none;align=left;verticalAlign=top;spacingLeft=4;spacingRight=4;overflow=hidden;rotatable=0;points=[[0,0.5],[1,0.5]];portConstraint=eastwest;whiteSpace=wrap;html=1;rounded=0;" parent="eLap9Rx4vX79RVpMXeGD-1" vertex="1"><mxGeometry y="104" width="200" height="26" as="geometry"/></mxCell><mxCell id="eLap9Rx4vX79RVpMXeGD-9" value="+ split percent: int" style="text;strokeColor=none;fillColor=none;align=left;verticalAlign=top;spacingLeft=4;spacingRight=4;overflow=hidden;rotatable=0;points=[[0,0.5],[1,0.5]];portConstraint=eastwest;whiteSpace=wrap;html=1;rounded=0;" parent="eLap9Rx4vX79RVpMXeGD-1" vertex="1"><mxGeometry y="130" width="200" height="26" as="geometry"/></mxCell><mxCell id="eLap9Rx4vX79RVpMXeGD-10" value="+ angle: int" style="text;strokeColor=none;fillColor=none;align=left;verticalAlign=top;spacingLeft=4;spacingRight=4;overflow=hidden;rotatable=0;points=[[0,0.5],[1,0.5]];portConstraint=eastwest;whiteSpace=wrap;html=1;rounded=0;" parent="eLap9Rx4vX79RVpMXeGD-1" vertex="1"><mxGeometry y="156" width="200" height="26" as="geometry"/></mxCell><mxCell id="eLap9Rx4vX79RVpMXeGD-11" value="+ hitbox: Hitbox" style="text;strokeColor=none;fillColor=none;align=left;verticalAlign=top;spacingLeft=4;spacingRight=4;overflow=hidden;rotatable=0;points=[[0,0.5],[1,0.5]];portConstraint=eastwest;whiteSpace=wrap;html=1;rounded=0;" parent="eLap9Rx4vX79RVpMXeGD-1" vertex="1"><mxGeometry y="182" width="200" height="26" as="geometry"/></mxCell><mxCell id="eLap9Rx4vX79RVpMXeGD-3" value="" style="line;strokeWidth=1;fillColor=none;align=left;verticalAlign=middle;spacingTop=-1;spacingLeft=3;spacingRight=3;rotatable=0;labelPosition=right;points=[];portConstraint=eastwest;strokeColor=inherit;rounded=0;" parent="eLap9Rx4vX79RVpMXeGD-1" vertex="1"><mxGeometry y="208" width="200" height="8" as="geometry"/></mxCell><mxCell id="eLap9Rx4vX79RVpMXeGD-4" value="+ set position(x: float, y:float)" style="text;strokeColor=none;fillColor=none;align=left;verticalAlign=top;spacingLeft=4;spacingRight=4;overflow=hidden;rotatable=0;points=[[0,0.5],[1,0.5]];portConstraint=eastwest;whiteSpace=wrap;html=1;rounded=0;" parent="eLap9Rx4vX79RVpMXeGD-1" vertex="1"><mxGeometry y="216" width="200" height="26" as="geometry"/></mxCell><mxCell id="eLap9Rx4vX79RVpMXeGD-12" value="+ move(x:float, y:float)" style="text;strokeColor=none;fillColor=none;align=left;verticalAlign=top;spacingLeft=4;spacingRight=4;overflow=hidden;rotatable=0;points=[[0,0.5],[1,0.5]];portConstraint=eastwest;whiteSpace=wrap;html=1;rounded=0;" parent="eLap9Rx4vX79RVpMXeGD-1" vertex="1"><mxGeometry y="242" width="200" height="26" as="geometry"/></mxCell><mxCell id="eLap9Rx4vX79RVpMXeGD-13" value="Small Asteroid" style="swimlane;fontStyle=1;align=center;verticalAlign=top;childLayout=stackLayout;horizontal=1;startSize=26;horizontalStack=0;resizeParent=1;resizeParentMax=0;resizeLast=0;collapsible=1;marginBottom=0;whiteSpace=wrap;html=1;rounded=0;" parent="1" vertex="1"><mxGeometry x="420" y="1000" width="160" height="34" as="geometry"/></mxCell><mxCell id="eLap9Rx4vX79RVpMXeGD-15" value="" style="line;strokeWidth=1;fillColor=none;align=left;verticalAlign=middle;spacingTop=-1;spacingLeft=3;spacingRight=3;rotatable=0;labelPosition=right;points=[];portConstraint=eastwest;strokeColor=inherit;rounded=0;" parent="eLap9Rx4vX79RVpMXeGD-13" vertex="1"><mxGeometry y="26" width="160" height="8" as="geometry"/></mxCell><mxCell id="eLap9Rx4vX79RVpMXeGD-17" value="Big Asteroid" style="swimlane;fontStyle=1;align=center;verticalAlign=top;childLayout=stackLayout;horizontal=1;startSize=26;horizontalStack=0;resizeParent=1;resizeParentMax=0;resizeLast=0;collapsible=1;marginBottom=0;whiteSpace=wrap;html=1;rounded=0;" parent="1" vertex="1"><mxGeometry x="600" y="1000" width="160" height="34" as="geometry"/></mxCell><mxCell id="eLap9Rx4vX79RVpMXeGD-19" value="" style="line;strokeWidth=1;fillColor=none;align=left;verticalAlign=middle;spacingTop=-1;spacingLeft=3;spacingRight=3;rotatable=0;labelPosition=right;points=[];portConstraint=eastwest;strokeColor=inherit;rounded=0;" parent="eLap9Rx4vX79RVpMXeGD-17" vertex="1"><mxGeometry y="26" width="160" height="8" as="geometry"/></mxCell><mxCell id="eLap9Rx4vX79RVpMXeGD-21" value="Split Asteroid" style="swimlane;fontStyle=1;align=center;verticalAlign=top;childLayout=stackLayout;horizontal=1;startSize=26;horizontalStack=0;resizeParent=1;resizeParentMax=0;resizeLast=0;collapsible=1;marginBottom=0;whiteSpace=wrap;html=1;rounded=0;" parent="1" vertex="1"><mxGeometry x="780" y="1000" width="170" height="60" as="geometry"/></mxCell><mxCell id="eLap9Rx4vX79RVpMXeGD-22" value="+ move dir: int" style="text;strokeColor=none;fillColor=none;align=left;verticalAlign=top;spacingLeft=4;spacingRight=4;overflow=hidden;rotatable=0;points=[[0,0.5],[1,0.5]];portConstraint=eastwest;whiteSpace=wrap;html=1;rounded=0;" parent="eLap9Rx4vX79RVpMXeGD-21" vertex="1"><mxGeometry y="26" width="170" height="26" as="geometry"/></mxCell><mxCell id="eLap9Rx4vX79RVpMXeGD-23" value="" style="line;strokeWidth=1;fillColor=none;align=left;verticalAlign=middle;spacingTop=-1;spacingLeft=3;spacingRight=3;rotatable=0;labelPosition=right;points=[];portConstraint=eastwest;strokeColor=inherit;rounded=0;" parent="eLap9Rx4vX79RVpMXeGD-21" vertex="1"><mxGeometry y="52" width="170" height="8" as="geometry"/></mxCell><mxCell id="eLap9Rx4vX79RVpMXeGD-25" value="" style="endArrow=none;html=1;rounded=0;" parent="1" edge="1"><mxGeometry width="50" height="50" relative="1" as="geometry"><mxPoint x="500" y="960" as="sourcePoint"/><mxPoint x="860" y="960" as="targetPoint"/></mxGeometry></mxCell><mxCell id="eLap9Rx4vX79RVpMXeGD-26" value="" style="endArrow=none;html=1;rounded=0;exitX=0.5;exitY=0;exitDx=0;exitDy=0;" parent="1" source="eLap9Rx4vX79RVpMXeGD-13" edge="1"><mxGeometry width="50" height="50" relative="1" as="geometry"><mxPoint x="480" y="555" as="sourcePoint"/><mxPoint x="500" y="960" as="targetPoint"/></mxGeometry></mxCell><mxCell id="eLap9Rx4vX79RVpMXeGD-27" value="" style="endArrow=none;html=1;rounded=0;" parent="1" edge="1"><mxGeometry width="50" height="50" relative="1" as="geometry"><mxPoint x="500" y="960" as="sourcePoint"/><mxPoint x="880" y="960" as="targetPoint"/></mxGeometry></mxCell><mxCell id="eLap9Rx4vX79RVpMXeGD-28" value="" style="endArrow=none;html=1;rounded=0;exitX=0.5;exitY=0;exitDx=0;exitDy=0;" parent="1" edge="1"><mxGeometry width="50" height="50" relative="1" as="geometry"><mxPoint x="880.0000000000001" y="1000" as="sourcePoint"/><mxPoint x="880" y="960" as="targetPoint"/></mxGeometry></mxCell><mxCell id="eLap9Rx4vX79RVpMXeGD-29" value="" style="endArrow=block;endSize=16;endFill=0;html=1;rounded=0;exitX=0.5;exitY=0;exitDx=0;exitDy=0;entryX=0.403;entryY=1.04;entryDx=0;entryDy=0;entryPerimeter=0;" parent="1" source="eLap9Rx4vX79RVpMXeGD-17" target="eLap9Rx4vX79RVpMXeGD-12" edge="1"><mxGeometry x="-0.75" y="10" width="160" relative="1" as="geometry"><mxPoint x="920" y="985" as="sourcePoint"/><mxPoint x="920" y="908" as="targetPoint"/><mxPoint as="offset"/></mxGeometry></mxCell><mxCell id="eLap9Rx4vX79RVpMXeGD-31" value="Spaceship" style="swimlane;fontStyle=1;align=center;verticalAlign=top;childLayout=stackLayout;horizontal=1;startSize=26;horizontalStack=0;resizeParent=1;resizeParentMax=0;resizeLast=0;collapsible=1;marginBottom=0;whiteSpace=wrap;html=1;rounded=0;" parent="1" vertex="1"><mxGeometry x="600" y="40" width="200" height="372" as="geometry"/></mxCell><mxCell id="eLap9Rx4vX79RVpMXeGD-32" value="+ speed: int" style="text;strokeColor=none;fillColor=none;align=left;verticalAlign=top;spacingLeft=4;spacingRight=4;overflow=hidden;rotatable=0;points=[[0,0.5],[1,0.5]];portConstraint=eastwest;whiteSpace=wrap;html=1;rounded=0;" parent="eLap9Rx4vX79RVpMXeGD-31" vertex="1"><mxGeometry y="26" width="200" height="26" as="geometry"/></mxCell><mxCell id="eLap9Rx4vX79RVpMXeGD-35" value="+ hp max: int" style="text;strokeColor=none;fillColor=none;align=left;verticalAlign=top;spacingLeft=4;spacingRight=4;overflow=hidden;rotatable=0;points=[[0,0.5],[1,0.5]];portConstraint=eastwest;whiteSpace=wrap;html=1;rounded=0;" parent="eLap9Rx4vX79RVpMXeGD-31" vertex="1"><mxGeometry y="52" width="200" height="26" as="geometry"/></mxCell><mxCell id="eLap9Rx4vX79RVpMXeGD-36" value="+ hp current: int" style="text;strokeColor=none;fillColor=none;align=left;verticalAlign=top;spacingLeft=4;spacingRight=4;overflow=hidden;rotatable=0;points=[[0,0.5],[1,0.5]];portConstraint=eastwest;whiteSpace=wrap;html=1;rounded=0;" parent="eLap9Rx4vX79RVpMXeGD-31" vertex="1"><mxGeometry y="78" width="200" height="26" as="geometry"/></mxCell><mxCell id="eLap9Rx4vX79RVpMXeGD-37" value="+ weapon: Weapon" style="text;strokeColor=none;fillColor=none;align=left;verticalAlign=top;spacingLeft=4;spacingRight=4;overflow=hidden;rotatable=0;points=[[0,0.5],[1,0.5]];portConstraint=eastwest;whiteSpace=wrap;html=1;rounded=0;" parent="eLap9Rx4vX79RVpMXeGD-31" vertex="1"><mxGeometry y="104" width="200" height="26" as="geometry"/></mxCell><mxCell id="eLap9Rx4vX79RVpMXeGD-38" value="+ damage multiplier: float" style="text;strokeColor=none;fillColor=none;align=left;verticalAlign=top;spacingLeft=4;spacingRight=4;overflow=hidden;rotatable=0;points=[[0,0.5],[1,0.5]];portConstraint=eastwest;whiteSpace=wrap;html=1;rounded=0;" parent="eLap9Rx4vX79RVpMXeGD-31" vertex="1"><mxGeometry y="130" width="200" height="26" as="geometry"/></mxCell><mxCell id="eLap9Rx4vX79RVpMXeGD-39" value="+ speed multiplier: float" style="text;strokeColor=none;fillColor=none;align=left;verticalAlign=top;spacingLeft=4;spacingRight=4;overflow=hidden;rotatable=0;points=[[0,0.5],[1,0.5]];portConstraint=eastwest;whiteSpace=wrap;html=1;rounded=0;" parent="eLap9Rx4vX79RVpMXeGD-31" vertex="1"><mxGeometry y="156" width="200" height="26" as="geometry"/></mxCell><mxCell id="eLap9Rx4vX79RVpMXeGD-40" value="+ hitbox: Hitbox" style="text;strokeColor=none;fillColor=none;align=left;verticalAlign=top;spacingLeft=4;spacingRight=4;overflow=hidden;rotatable=0;points=[[0,0.5],[1,0.5]];portConstraint=eastwest;whiteSpace=wrap;html=1;rounded=0;" parent="eLap9Rx4vX79RVpMXeGD-31" vertex="1"><mxGeometry y="182" width="200" height="26" as="geometry"/></mxCell><mxCell id="eLap9Rx4vX79RVpMXeGD-33" value="" style="line;strokeWidth=1;fillColor=none;align=left;verticalAlign=middle;spacingTop=-1;spacingLeft=3;spacingRight=3;rotatable=0;labelPosition=right;points=[];portConstraint=eastwest;strokeColor=inherit;rounded=0;" parent="eLap9Rx4vX79RVpMXeGD-31" vertex="1"><mxGeometry y="208" width="200" height="8" as="geometry"/></mxCell><mxCell id="eLap9Rx4vX79RVpMXeGD-34" value="+ set position(x:float, y:float)" style="text;strokeColor=none;fillColor=none;align=left;verticalAlign=top;spacingLeft=4;spacingRight=4;overflow=hidden;rotatable=0;points=[[0,0.5],[1,0.5]];portConstraint=eastwest;whiteSpace=wrap;html=1;rounded=0;" parent="eLap9Rx4vX79RVpMXeGD-31" vertex="1"><mxGeometry y="216" width="200" height="26" as="geometry"/></mxCell><mxCell id="eLap9Rx4vX79RVpMXeGD-41" value="+ move(x:float, y:float)" style="text;strokeColor=none;fillColor=none;align=left;verticalAlign=top;spacingLeft=4;spacingRight=4;overflow=hidden;rotatable=0;points=[[0,0.5],[1,0.5]];portConstraint=eastwest;whiteSpace=wrap;html=1;rounded=0;" parent="eLap9Rx4vX79RVpMXeGD-31" vertex="1"><mxGeometry y="242" width="200" height="26" as="geometry"/></mxCell><mxCell id="eLap9Rx4vX79RVpMXeGD-42" value="+ shoot(): Bullet" style="text;strokeColor=none;fillColor=none;align=left;verticalAlign=top;spacingLeft=4;spacingRight=4;overflow=hidden;rotatable=0;points=[[0,0.5],[1,0.5]];portConstraint=eastwest;whiteSpace=wrap;html=1;rounded=0;" parent="eLap9Rx4vX79RVpMXeGD-31" vertex="1"><mxGeometry y="268" width="200" height="26" as="geometry"/></mxCell><mxCell id="eLap9Rx4vX79RVpMXeGD-43" value="+ shoot center(): Bullet" style="text;strokeColor=none;fillColor=none;align=left;verticalAlign=top;spacingLeft=4;spacingRight=4;overflow=hidden;rotatable=0;points=[[0,0.5],[1,0.5]];portConstraint=eastwest;whiteSpace=wrap;html=1;rounded=0;" parent="eLap9Rx4vX79RVpMXeGD-31" vertex="1"><mxGeometry y="294" width="200" height="26" as="geometry"/></mxCell><mxCell id="eLap9Rx4vX79RVpMXeGD-44" value="+ shoot left(): Bullet" style="text;strokeColor=none;fillColor=none;align=left;verticalAlign=top;spacingLeft=4;spacingRight=4;overflow=hidden;rotatable=0;points=[[0,0.5],[1,0.5]];portConstraint=eastwest;whiteSpace=wrap;html=1;rounded=0;" parent="eLap9Rx4vX79RVpMXeGD-31" vertex="1"><mxGeometry y="320" width="200" height="26" as="geometry"/></mxCell><mxCell id="eLap9Rx4vX79RVpMXeGD-45" value="+ shoot right(): Bullet" style="text;strokeColor=none;fillColor=none;align=left;verticalAlign=top;spacingLeft=4;spacingRight=4;overflow=hidden;rotatable=0;points=[[0,0.5],[1,0.5]];portConstraint=eastwest;whiteSpace=wrap;html=1;rounded=0;" parent="eLap9Rx4vX79RVpMXeGD-31" vertex="1"><mxGeometry y="346" width="200" height="26" as="geometry"/></mxCell><mxCell id="eLap9Rx4vX79RVpMXeGD-47" value="Hitbox" style="swimlane;fontStyle=1;align=center;verticalAlign=top;childLayout=stackLayout;horizontal=1;startSize=26;horizontalStack=0;resizeParent=1;resizeParentMax=0;resizeLast=0;collapsible=1;marginBottom=0;whiteSpace=wrap;html=1;rounded=0;" parent="1" vertex="1"><mxGeometry x="890" y="370" width="200" height="190" as="geometry"/></mxCell><mxCell id="eLap9Rx4vX79RVpMXeGD-48" value="+ center x: float" style="text;strokeColor=none;fillColor=none;align=left;verticalAlign=top;spacingLeft=4;spacingRight=4;overflow=hidden;rotatable=0;points=[[0,0.5],[1,0.5]];portConstraint=eastwest;whiteSpace=wrap;html=1;rounded=0;" parent="eLap9Rx4vX79RVpMXeGD-47" vertex="1"><mxGeometry y="26" width="200" height="26" as="geometry"/></mxCell><mxCell id="eLap9Rx4vX79RVpMXeGD-51" value="+ center y: float" style="text;strokeColor=none;fillColor=none;align=left;verticalAlign=top;spacingLeft=4;spacingRight=4;overflow=hidden;rotatable=0;points=[[0,0.5],[1,0.5]];portConstraint=eastwest;whiteSpace=wrap;html=1;rounded=0;" parent="eLap9Rx4vX79RVpMXeGD-47" vertex="1"><mxGeometry y="52" width="200" height="26" as="geometry"/></mxCell><mxCell id="eLap9Rx4vX79RVpMXeGD-52" value="+ radius: float" style="text;strokeColor=none;fillColor=none;align=left;verticalAlign=top;spacingLeft=4;spacingRight=4;overflow=hidden;rotatable=0;points=[[0,0.5],[1,0.5]];portConstraint=eastwest;whiteSpace=wrap;html=1;rounded=0;" parent="eLap9Rx4vX79RVpMXeGD-47" vertex="1"><mxGeometry y="78" width="200" height="26" as="geometry"/></mxCell><mxCell id="eLap9Rx4vX79RVpMXeGD-49" value="" style="line;strokeWidth=1;fillColor=none;align=left;verticalAlign=middle;spacingTop=-1;spacingLeft=3;spacingRight=3;rotatable=0;labelPosition=right;points=[];portConstraint=eastwest;strokeColor=inherit;rounded=0;" parent="eLap9Rx4vX79RVpMXeGD-47" vertex="1"><mxGeometry y="104" width="200" height="8" as="geometry"/></mxCell><mxCell id="eLap9Rx4vX79RVpMXeGD-50" value="+ set position(x:float, y:float)" style="text;strokeColor=none;fillColor=none;align=left;verticalAlign=top;spacingLeft=4;spacingRight=4;overflow=hidden;rotatable=0;points=[[0,0.5],[1,0.5]];portConstraint=eastwest;whiteSpace=wrap;html=1;rounded=0;" parent="eLap9Rx4vX79RVpMXeGD-47" vertex="1"><mxGeometry y="112" width="200" height="26" as="geometry"/></mxCell><mxCell id="eLap9Rx4vX79RVpMXeGD-53" value="+ collides with(other): bool" style="text;strokeColor=none;fillColor=none;align=left;verticalAlign=top;spacingLeft=4;spacingRight=4;overflow=hidden;rotatable=0;points=[[0,0.5],[1,0.5]];portConstraint=eastwest;whiteSpace=wrap;html=1;rounded=0;" parent="eLap9Rx4vX79RVpMXeGD-47" vertex="1"><mxGeometry y="138" width="200" height="26" as="geometry"/></mxCell><mxCell id="eLap9Rx4vX79RVpMXeGD-54" value="+ draw()" style="text;strokeColor=none;fillColor=none;align=left;verticalAlign=top;spacingLeft=4;spacingRight=4;overflow=hidden;rotatable=0;points=[[0,0.5],[1,0.5]];portConstraint=eastwest;whiteSpace=wrap;html=1;rounded=0;" parent="eLap9Rx4vX79RVpMXeGD-47" vertex="1"><mxGeometry y="164" width="200" height="26" as="geometry"/></mxCell><mxCell id="eLap9Rx4vX79RVpMXeGD-55" value="Menu View" style="swimlane;fontStyle=1;align=center;verticalAlign=top;childLayout=stackLayout;horizontal=1;startSize=26;horizontalStack=0;resizeParent=1;resizeParentMax=0;resizeLast=0;collapsible=1;marginBottom=0;whiteSpace=wrap;html=1;rounded=0;" parent="1" vertex="1"><mxGeometry x="40" y="40" width="200" height="190" as="geometry"/></mxCell><mxCell id="eLap9Rx4vX79RVpMXeGD-56" value="+ high score: int" style="text;strokeColor=none;fillColor=none;align=left;verticalAlign=top;spacingLeft=4;spacingRight=4;overflow=hidden;rotatable=0;points=[[0,0.5],[1,0.5]];portConstraint=eastwest;whiteSpace=wrap;html=1;rounded=0;" parent="eLap9Rx4vX79RVpMXeGD-55" vertex="1"><mxGeometry y="26" width="200" height="26" as="geometry"/></mxCell><mxCell id="eLap9Rx4vX79RVpMXeGD-59" value="+ background: png" style="text;strokeColor=none;fillColor=none;align=left;verticalAlign=top;spacingLeft=4;spacingRight=4;overflow=hidden;rotatable=0;points=[[0,0.5],[1,0.5]];portConstraint=eastwest;whiteSpace=wrap;html=1;rounded=0;" parent="eLap9Rx4vX79RVpMXeGD-55" vertex="1"><mxGeometry y="52" width="200" height="26" as="geometry"/></mxCell><mxCell id="eLap9Rx4vX79RVpMXeGD-60" value="+ music: mp3" style="text;strokeColor=none;fillColor=none;align=left;verticalAlign=top;spacingLeft=4;spacingRight=4;overflow=hidden;rotatable=0;points=[[0,0.5],[1,0.5]];portConstraint=eastwest;whiteSpace=wrap;html=1;rounded=0;" parent="eLap9Rx4vX79RVpMXeGD-55" vertex="1"><mxGeometry y="78" width="200" height="26" as="geometry"/></mxCell><mxCell id="eLap9Rx4vX79RVpMXeGD-57" value="" style="line;strokeWidth=1;fillColor=none;align=left;verticalAlign=middle;spacingTop=-1;spacingLeft=3;spacingRight=3;rotatable=0;labelPosition=right;points=[];portConstraint=eastwest;strokeColor=inherit;rounded=0;" parent="eLap9Rx4vX79RVpMXeGD-55" vertex="1"><mxGeometry y="104" width="200" height="8" as="geometry"/></mxCell><mxCell id="eLap9Rx4vX79RVpMXeGD-58" value="+ on show view()" style="text;strokeColor=none;fillColor=none;align=left;verticalAlign=top;spacingLeft=4;spacingRight=4;overflow=hidden;rotatable=0;points=[[0,0.5],[1,0.5]];portConstraint=eastwest;whiteSpace=wrap;html=1;rounded=0;" parent="eLap9Rx4vX79RVpMXeGD-55" vertex="1"><mxGeometry y="112" width="200" height="26" as="geometry"/></mxCell><mxCell id="eLap9Rx4vX79RVpMXeGD-62" value="+ on draw()" style="text;strokeColor=none;fillColor=none;align=left;verticalAlign=top;spacingLeft=4;spacingRight=4;overflow=hidden;rotatable=0;points=[[0,0.5],[1,0.5]];portConstraint=eastwest;whiteSpace=wrap;html=1;rounded=0;" parent="eLap9Rx4vX79RVpMXeGD-55" vertex="1"><mxGeometry y="138" width="200" height="26" as="geometry"/></mxCell><mxCell id="eLap9Rx4vX79RVpMXeGD-63" value="+ on key press(key, modifiers)" style="text;strokeColor=none;fillColor=none;align=left;verticalAlign=top;spacingLeft=4;spacingRight=4;overflow=hidden;rotatable=0;points=[[0,0.5],[1,0.5]];portConstraint=eastwest;whiteSpace=wrap;html=1;rounded=0;" parent="eLap9Rx4vX79RVpMXeGD-55" vertex="1"><mxGeometry y="164" width="200" height="26" as="geometry"/></mxCell><mxCell id="eLap9Rx4vX79RVpMXeGD-64" value="Pause View" style="swimlane;fontStyle=1;align=center;verticalAlign=top;childLayout=stackLayout;horizontal=1;startSize=26;horizontalStack=0;resizeParent=1;resizeParentMax=0;resizeLast=0;collapsible=1;marginBottom=0;whiteSpace=wrap;html=1;rounded=0;" parent="1" vertex="1"><mxGeometry x="40" y="520" width="200" height="164" as="geometry"/></mxCell><mxCell id="eLap9Rx4vX79RVpMXeGD-65" value="+ game view: GameView" style="text;strokeColor=none;fillColor=none;align=left;verticalAlign=top;spacingLeft=4;spacingRight=4;overflow=hidden;rotatable=0;points=[[0,0.5],[1,0.5]];portConstraint=eastwest;whiteSpace=wrap;html=1;rounded=0;" parent="eLap9Rx4vX79RVpMXeGD-64" vertex="1"><mxGeometry y="26" width="200" height="26" as="geometry"/></mxCell><mxCell id="eLap9Rx4vX79RVpMXeGD-68" value="+ high score: int" style="text;strokeColor=none;fillColor=none;align=left;verticalAlign=top;spacingLeft=4;spacingRight=4;overflow=hidden;rotatable=0;points=[[0,0.5],[1,0.5]];portConstraint=eastwest;whiteSpace=wrap;html=1;rounded=0;" parent="eLap9Rx4vX79RVpMXeGD-64" vertex="1"><mxGeometry y="52" width="200" height="26" as="geometry"/></mxCell><mxCell id="eLap9Rx4vX79RVpMXeGD-66" value="" style="line;strokeWidth=1;fillColor=none;align=left;verticalAlign=middle;spacingTop=-1;spacingLeft=3;spacingRight=3;rotatable=0;labelPosition=right;points=[];portConstraint=eastwest;strokeColor=inherit;rounded=0;" parent="eLap9Rx4vX79RVpMXeGD-64" vertex="1"><mxGeometry y="78" width="200" height="8" as="geometry"/></mxCell><mxCell id="eLap9Rx4vX79RVpMXeGD-67" value="+ on show view()" style="text;strokeColor=none;fillColor=none;align=left;verticalAlign=top;spacingLeft=4;spacingRight=4;overflow=hidden;rotatable=0;points=[[0,0.5],[1,0.5]];portConstraint=eastwest;whiteSpace=wrap;html=1;rounded=0;" parent="eLap9Rx4vX79RVpMXeGD-64" vertex="1"><mxGeometry y="86" width="200" height="26" as="geometry"/></mxCell><mxCell id="eLap9Rx4vX79RVpMXeGD-69" value="+ on draw()" style="text;strokeColor=none;fillColor=none;align=left;verticalAlign=top;spacingLeft=4;spacingRight=4;overflow=hidden;rotatable=0;points=[[0,0.5],[1,0.5]];portConstraint=eastwest;whiteSpace=wrap;html=1;rounded=0;" parent="eLap9Rx4vX79RVpMXeGD-64" vertex="1"><mxGeometry y="112" width="200" height="26" as="geometry"/></mxCell><mxCell id="eLap9Rx4vX79RVpMXeGD-70" value="+ on key press(key, modifiers)" style="text;strokeColor=none;fillColor=none;align=left;verticalAlign=top;spacingLeft=4;spacingRight=4;overflow=hidden;rotatable=0;points=[[0,0.5],[1,0.5]];portConstraint=eastwest;whiteSpace=wrap;html=1;rounded=0;" parent="eLap9Rx4vX79RVpMXeGD-64" vertex="1"><mxGeometry y="138" width="200" height="26" as="geometry"/></mxCell><mxCell id="eLap9Rx4vX79RVpMXeGD-71" value="Game Over View" style="swimlane;fontStyle=1;align=center;verticalAlign=top;childLayout=stackLayout;horizontal=1;startSize=26;horizontalStack=0;resizeParent=1;resizeParentMax=0;resizeLast=0;collapsible=1;marginBottom=0;whiteSpace=wrap;html=1;rounded=0;" parent="1" vertex="1"><mxGeometry x="40" y="280" width="200" height="190" as="geometry"/></mxCell><mxCell id="eLap9Rx4vX79RVpMXeGD-72" value="+ high score: int" style="text;strokeColor=none;fillColor=none;align=left;verticalAlign=top;spacingLeft=4;spacingRight=4;overflow=hidden;rotatable=0;points=[[0,0.5],[1,0.5]];portConstraint=eastwest;whiteSpace=wrap;html=1;rounded=0;" parent="eLap9Rx4vX79RVpMXeGD-71" vertex="1"><mxGeometry y="26" width="200" height="26" as="geometry"/></mxCell><mxCell id="eLap9Rx4vX79RVpMXeGD-75" value="+ background: png" style="text;strokeColor=none;fillColor=none;align=left;verticalAlign=top;spacingLeft=4;spacingRight=4;overflow=hidden;rotatable=0;points=[[0,0.5],[1,0.5]];portConstraint=eastwest;whiteSpace=wrap;html=1;rounded=0;" parent="eLap9Rx4vX79RVpMXeGD-71" vertex="1"><mxGeometry y="52" width="200" height="26" as="geometry"/></mxCell><mxCell id="eLap9Rx4vX79RVpMXeGD-76" value="+ music: mp3" style="text;strokeColor=none;fillColor=none;align=left;verticalAlign=top;spacingLeft=4;spacingRight=4;overflow=hidden;rotatable=0;points=[[0,0.5],[1,0.5]];portConstraint=eastwest;whiteSpace=wrap;html=1;rounded=0;" parent="eLap9Rx4vX79RVpMXeGD-71" vertex="1"><mxGeometry y="78" width="200" height="26" as="geometry"/></mxCell><mxCell id="eLap9Rx4vX79RVpMXeGD-73" value="" style="line;strokeWidth=1;fillColor=none;align=left;verticalAlign=middle;spacingTop=-1;spacingLeft=3;spacingRight=3;rotatable=0;labelPosition=right;points=[];portConstraint=eastwest;strokeColor=inherit;rounded=0;" parent="eLap9Rx4vX79RVpMXeGD-71" vertex="1"><mxGeometry y="104" width="200" height="8" as="geometry"/></mxCell><mxCell id="eLap9Rx4vX79RVpMXeGD-74" value="+ on show view()" style="text;strokeColor=none;fillColor=none;align=left;verticalAlign=top;spacingLeft=4;spacingRight=4;overflow=hidden;rotatable=0;points=[[0,0.5],[1,0.5]];portConstraint=eastwest;whiteSpace=wrap;html=1;rounded=0;" parent="eLap9Rx4vX79RVpMXeGD-71" vertex="1"><mxGeometry y="112" width="200" height="26" as="geometry"/></mxCell><mxCell id="eLap9Rx4vX79RVpMXeGD-77" value="+ on draw()" style="text;strokeColor=none;fillColor=none;align=left;verticalAlign=top;spacingLeft=4;spacingRight=4;overflow=hidden;rotatable=0;points=[[0,0.5],[1,0.5]];portConstraint=eastwest;whiteSpace=wrap;html=1;rounded=0;" parent="eLap9Rx4vX79RVpMXeGD-71" vertex="1"><mxGeometry y="138" width="200" height="26" as="geometry"/></mxCell><mxCell id="eLap9Rx4vX79RVpMXeGD-78" value="+ on key press(key, modifiers)" style="text;strokeColor=none;fillColor=none;align=left;verticalAlign=top;spacingLeft=4;spacingRight=4;overflow=hidden;rotatable=0;points=[[0,0.5],[1,0.5]];portConstraint=eastwest;whiteSpace=wrap;html=1;rounded=0;" parent="eLap9Rx4vX79RVpMXeGD-71" vertex="1"><mxGeometry y="164" width="200" height="26" as="geometry"/></mxCell><mxCell id="eLap9Rx4vX79RVpMXeGD-84" value="Game View" style="swimlane;fontStyle=1;align=center;verticalAlign=top;childLayout=stackLayout;horizontal=1;startSize=26;horizontalStack=0;resizeParent=1;resizeParentMax=0;resizeLast=0;collapsible=1;marginBottom=0;whiteSpace=wrap;html=1;rounded=0;" parent="1" vertex="1"><mxGeometry x="320" y="40" width="200" height="892" as="geometry"/></mxCell><mxCell id="eLap9Rx4vX79RVpMXeGD-85" value="+ spaceship: SpaceShip" style="text;strokeColor=none;fillColor=none;align=left;verticalAlign=top;spacingLeft=4;spacingRight=4;overflow=hidden;rotatable=0;points=[[0,0.5],[1,0.5]];portConstraint=eastwest;whiteSpace=wrap;html=1;rounded=0;" parent="eLap9Rx4vX79RVpMXeGD-84" vertex="1"><mxGeometry y="26" width="200" height="26" as="geometry"/></mxCell><mxCell id="eLap9Rx4vX79RVpMXeGD-88" value="+ asteroids: list" style="text;strokeColor=none;fillColor=none;align=left;verticalAlign=top;spacingLeft=4;spacingRight=4;overflow=hidden;rotatable=0;points=[[0,0.5],[1,0.5]];portConstraint=eastwest;whiteSpace=wrap;html=1;rounded=0;" parent="eLap9Rx4vX79RVpMXeGD-84" vertex="1"><mxGeometry y="52" width="200" height="26" as="geometry"/></mxCell><mxCell id="eLap9Rx4vX79RVpMXeGD-89" value="+ bullets: list" style="text;strokeColor=none;fillColor=none;align=left;verticalAlign=top;spacingLeft=4;spacingRight=4;overflow=hidden;rotatable=0;points=[[0,0.5],[1,0.5]];portConstraint=eastwest;whiteSpace=wrap;html=1;rounded=0;" parent="eLap9Rx4vX79RVpMXeGD-84" vertex="1"><mxGeometry y="78" width="200" height="26" as="geometry"/></mxCell><mxCell id="eLap9Rx4vX79RVpMXeGD-90" value="+ powerups: list" style="text;strokeColor=none;fillColor=none;align=left;verticalAlign=top;spacingLeft=4;spacingRight=4;overflow=hidden;rotatable=0;points=[[0,0.5],[1,0.5]];portConstraint=eastwest;whiteSpace=wrap;html=1;rounded=0;" parent="eLap9Rx4vX79RVpMXeGD-84" vertex="1"><mxGeometry y="104" width="200" height="26" as="geometry"/></mxCell><mxCell id="eLap9Rx4vX79RVpMXeGD-91" value="+ split asteroids: list" style="text;strokeColor=none;fillColor=none;align=left;verticalAlign=top;spacingLeft=4;spacingRight=4;overflow=hidden;rotatable=0;points=[[0,0.5],[1,0.5]];portConstraint=eastwest;whiteSpace=wrap;html=1;rounded=0;" parent="eLap9Rx4vX79RVpMXeGD-84" vertex="1"><mxGeometry y="130" width="200" height="26" as="geometry"/></mxCell><mxCell id="eLap9Rx4vX79RVpMXeGD-92" value="+ colliding asteroids: list" style="text;strokeColor=none;fillColor=none;align=left;verticalAlign=top;spacingLeft=4;spacingRight=4;overflow=hidden;rotatable=0;points=[[0,0.5],[1,0.5]];portConstraint=eastwest;whiteSpace=wrap;html=1;rounded=0;" parent="eLap9Rx4vX79RVpMXeGD-84" vertex="1"><mxGeometry y="156" width="200" height="26" as="geometry"/></mxCell><mxCell id="eLap9Rx4vX79RVpMXeGD-93" value="+ shot timer: float" style="text;strokeColor=none;fillColor=none;align=left;verticalAlign=top;spacingLeft=4;spacingRight=4;overflow=hidden;rotatable=0;points=[[0,0.5],[1,0.5]];portConstraint=eastwest;whiteSpace=wrap;html=1;rounded=0;" parent="eLap9Rx4vX79RVpMXeGD-84" vertex="1"><mxGeometry y="182" width="200" height="26" as="geometry"/></mxCell><mxCell id="eLap9Rx4vX79RVpMXeGD-94" value="+ shots fired: int" style="text;strokeColor=none;fillColor=none;align=left;verticalAlign=top;spacingLeft=4;spacingRight=4;overflow=hidden;rotatable=0;points=[[0,0.5],[1,0.5]];portConstraint=eastwest;whiteSpace=wrap;html=1;rounded=0;" parent="eLap9Rx4vX79RVpMXeGD-84" vertex="1"><mxGeometry y="208" width="200" height="26" as="geometry"/></mxCell><mxCell id="eLap9Rx4vX79RVpMXeGD-95" value="+ min asteroids: int" style="text;strokeColor=none;fillColor=none;align=left;verticalAlign=top;spacingLeft=4;spacingRight=4;overflow=hidden;rotatable=0;points=[[0,0.5],[1,0.5]];portConstraint=eastwest;whiteSpace=wrap;html=1;rounded=0;" parent="eLap9Rx4vX79RVpMXeGD-84" vertex="1"><mxGeometry y="234" width="200" height="26" as="geometry"/></mxCell><mxCell id="eLap9Rx4vX79RVpMXeGD-96" value="+ score: int" style="text;strokeColor=none;fillColor=none;align=left;verticalAlign=top;spacingLeft=4;spacingRight=4;overflow=hidden;rotatable=0;points=[[0,0.5],[1,0.5]];portConstraint=eastwest;whiteSpace=wrap;html=1;rounded=0;" parent="eLap9Rx4vX79RVpMXeGD-84" vertex="1"><mxGeometry y="260" width="200" height="26" as="geometry"/></mxCell><mxCell id="eLap9Rx4vX79RVpMXeGD-97" value="+ high score: int" style="text;strokeColor=none;fillColor=none;align=left;verticalAlign=top;spacingLeft=4;spacingRight=4;overflow=hidden;rotatable=0;points=[[0,0.5],[1,0.5]];portConstraint=eastwest;whiteSpace=wrap;html=1;rounded=0;" parent="eLap9Rx4vX79RVpMXeGD-84" vertex="1"><mxGeometry y="286" width="200" height="26" as="geometry"/></mxCell><mxCell id="eLap9Rx4vX79RVpMXeGD-98" value="+ gameover: bool" style="text;strokeColor=none;fillColor=none;align=left;verticalAlign=top;spacingLeft=4;spacingRight=4;overflow=hidden;rotatable=0;points=[[0,0.5],[1,0.5]];portConstraint=eastwest;whiteSpace=wrap;html=1;rounded=0;" parent="eLap9Rx4vX79RVpMXeGD-84" vertex="1"><mxGeometry y="312" width="200" height="26" as="geometry"/></mxCell><mxCell id="eLap9Rx4vX79RVpMXeGD-99" value="+ background: png" style="text;strokeColor=none;fillColor=none;align=left;verticalAlign=top;spacingLeft=4;spacingRight=4;overflow=hidden;rotatable=0;points=[[0,0.5],[1,0.5]];portConstraint=eastwest;whiteSpace=wrap;html=1;rounded=0;" parent="eLap9Rx4vX79RVpMXeGD-84" vertex="1"><mxGeometry y="338" width="200" height="26" as="geometry"/></mxCell><mxCell id="eLap9Rx4vX79RVpMXeGD-100" value="+ music: mp3" style="text;strokeColor=none;fillColor=none;align=left;verticalAlign=top;spacingLeft=4;spacingRight=4;overflow=hidden;rotatable=0;points=[[0,0.5],[1,0.5]];portConstraint=eastwest;whiteSpace=wrap;html=1;rounded=0;" parent="eLap9Rx4vX79RVpMXeGD-84" vertex="1"><mxGeometry y="364" width="200" height="26" as="geometry"/></mxCell><mxCell id="eLap9Rx4vX79RVpMXeGD-101" value="+ laser sound: wav" style="text;strokeColor=none;fillColor=none;align=left;verticalAlign=top;spacingLeft=4;spacingRight=4;overflow=hidden;rotatable=0;points=[[0,0.5],[1,0.5]];portConstraint=eastwest;whiteSpace=wrap;html=1;rounded=0;" parent="eLap9Rx4vX79RVpMXeGD-84" vertex="1"><mxGeometry y="390" width="200" height="26" as="geometry"/></mxCell><mxCell id="eLap9Rx4vX79RVpMXeGD-102" value="+ player hit sound: wav" style="text;strokeColor=none;fillColor=none;align=left;verticalAlign=top;spacingLeft=4;spacingRight=4;overflow=hidden;rotatable=0;points=[[0,0.5],[1,0.5]];portConstraint=eastwest;whiteSpace=wrap;html=1;rounded=0;" parent="eLap9Rx4vX79RVpMXeGD-84" vertex="1"><mxGeometry y="416" width="200" height="26" as="geometry"/></mxCell><mxCell id="eLap9Rx4vX79RVpMXeGD-103" value="+ explosion sound: wav" style="text;strokeColor=none;fillColor=none;align=left;verticalAlign=top;spacingLeft=4;spacingRight=4;overflow=hidden;rotatable=0;points=[[0,0.5],[1,0.5]];portConstraint=eastwest;whiteSpace=wrap;html=1;rounded=0;" parent="eLap9Rx4vX79RVpMXeGD-84" vertex="1"><mxGeometry y="442" width="200" height="26" as="geometry"/></mxCell><mxCell id="eLap9Rx4vX79RVpMXeGD-104" value="+ powerup sound: wav" style="text;strokeColor=none;fillColor=none;align=left;verticalAlign=top;spacingLeft=4;spacingRight=4;overflow=hidden;rotatable=0;points=[[0,0.5],[1,0.5]];portConstraint=eastwest;whiteSpace=wrap;html=1;rounded=0;" parent="eLap9Rx4vX79RVpMXeGD-84" vertex="1"><mxGeometry y="468" width="200" height="26" as="geometry"/></mxCell><mxCell id="eLap9Rx4vX79RVpMXeGD-105" value="+ key states: dict" style="text;strokeColor=none;fillColor=none;align=left;verticalAlign=top;spacingLeft=4;spacingRight=4;overflow=hidden;rotatable=0;points=[[0,0.5],[1,0.5]];portConstraint=eastwest;whiteSpace=wrap;html=1;rounded=0;" parent="eLap9Rx4vX79RVpMXeGD-84" vertex="1"><mxGeometry y="494" width="200" height="26" as="geometry"/></mxCell><mxCell id="eLap9Rx4vX79RVpMXeGD-106" value="+ debug hitbox: bool" style="text;strokeColor=none;fillColor=none;align=left;verticalAlign=top;spacingLeft=4;spacingRight=4;overflow=hidden;rotatable=0;points=[[0,0.5],[1,0.5]];portConstraint=eastwest;whiteSpace=wrap;html=1;rounded=0;" parent="eLap9Rx4vX79RVpMXeGD-84" vertex="1"><mxGeometry y="520" width="200" height="26" as="geometry"/></mxCell><mxCell id="eLap9Rx4vX79RVpMXeGD-107" value="+ debug stats: bool" style="text;strokeColor=none;fillColor=none;align=left;verticalAlign=top;spacingLeft=4;spacingRight=4;overflow=hidden;rotatable=0;points=[[0,0.5],[1,0.5]];portConstraint=eastwest;whiteSpace=wrap;html=1;rounded=0;" parent="eLap9Rx4vX79RVpMXeGD-84" vertex="1"><mxGeometry y="546" width="200" height="26" as="geometry"/></mxCell><mxCell id="eLap9Rx4vX79RVpMXeGD-86" value="" style="line;strokeWidth=1;fillColor=none;align=left;verticalAlign=middle;spacingTop=-1;spacingLeft=3;spacingRight=3;rotatable=0;labelPosition=right;points=[];portConstraint=eastwest;strokeColor=inherit;rounded=0;" parent="eLap9Rx4vX79RVpMXeGD-84" vertex="1"><mxGeometry y="572" width="200" height="8" as="geometry"/></mxCell><mxCell id="eLap9Rx4vX79RVpMXeGD-87" value="+ on show view()" style="text;strokeColor=none;fillColor=none;align=left;verticalAlign=top;spacingLeft=4;spacingRight=4;overflow=hidden;rotatable=0;points=[[0,0.5],[1,0.5]];portConstraint=eastwest;whiteSpace=wrap;html=1;rounded=0;" parent="eLap9Rx4vX79RVpMXeGD-84" vertex="1"><mxGeometry y="580" width="200" height="26" as="geometry"/></mxCell><mxCell id="eLap9Rx4vX79RVpMXeGD-108" value="+ save high score()" style="text;strokeColor=none;fillColor=none;align=left;verticalAlign=top;spacingLeft=4;spacingRight=4;overflow=hidden;rotatable=0;points=[[0,0.5],[1,0.5]];portConstraint=eastwest;whiteSpace=wrap;html=1;rounded=0;" parent="eLap9Rx4vX79RVpMXeGD-84" vertex="1"><mxGeometry y="606" width="200" height="26" as="geometry"/></mxCell><mxCell id="eLap9Rx4vX79RVpMXeGD-109" value="+ setup()" style="text;strokeColor=none;fillColor=none;align=left;verticalAlign=top;spacingLeft=4;spacingRight=4;overflow=hidden;rotatable=0;points=[[0,0.5],[1,0.5]];portConstraint=eastwest;whiteSpace=wrap;html=1;rounded=0;" parent="eLap9Rx4vX79RVpMXeGD-84" vertex="1"><mxGeometry y="632" width="200" height="26" as="geometry"/></mxCell><mxCell id="eLap9Rx4vX79RVpMXeGD-110" value="+ update(deltatime: float)" style="text;strokeColor=none;fillColor=none;align=left;verticalAlign=top;spacingLeft=4;spacingRight=4;overflow=hidden;rotatable=0;points=[[0,0.5],[1,0.5]];portConstraint=eastwest;whiteSpace=wrap;html=1;rounded=0;" parent="eLap9Rx4vX79RVpMXeGD-84" vertex="1"><mxGeometry y="658" width="200" height="26" as="geometry"/></mxCell><mxCell id="eLap9Rx4vX79RVpMXeGD-111" value="+ on draw()" style="text;strokeColor=none;fillColor=none;align=left;verticalAlign=top;spacingLeft=4;spacingRight=4;overflow=hidden;rotatable=0;points=[[0,0.5],[1,0.5]];portConstraint=eastwest;whiteSpace=wrap;html=1;rounded=0;" parent="eLap9Rx4vX79RVpMXeGD-84" vertex="1"><mxGeometry y="684" width="200" height="26" as="geometry"/></mxCell><mxCell id="eLap9Rx4vX79RVpMXeGD-112" value="+ on key press(key, modifiers)" style="text;strokeColor=none;fillColor=none;align=left;verticalAlign=top;spacingLeft=4;spacingRight=4;overflow=hidden;rotatable=0;points=[[0,0.5],[1,0.5]];portConstraint=eastwest;whiteSpace=wrap;html=1;rounded=0;" parent="eLap9Rx4vX79RVpMXeGD-84" vertex="1"><mxGeometry y="710" width="200" height="26" as="geometry"/></mxCell><mxCell id="eLap9Rx4vX79RVpMXeGD-113" value="+ on key release(key, modifiers)" style="text;strokeColor=none;fillColor=none;align=left;verticalAlign=top;spacingLeft=4;spacingRight=4;overflow=hidden;rotatable=0;points=[[0,0.5],[1,0.5]];portConstraint=eastwest;whiteSpace=wrap;html=1;rounded=0;" parent="eLap9Rx4vX79RVpMXeGD-84" vertex="1"><mxGeometry y="736" width="200" height="26" as="geometry"/></mxCell><mxCell id="eLap9Rx4vX79RVpMXeGD-114" value="+ is key pressed(key, modifiers)" style="text;strokeColor=none;fillColor=none;align=left;verticalAlign=top;spacingLeft=4;spacingRight=4;overflow=hidden;rotatable=0;points=[[0,0.5],[1,0.5]];portConstraint=eastwest;whiteSpace=wrap;html=1;rounded=0;" parent="eLap9Rx4vX79RVpMXeGD-84" vertex="1"><mxGeometry y="762" width="200" height="26" as="geometry"/></mxCell><mxCell id="eLap9Rx4vX79RVpMXeGD-115" value="+ spawn asteroids()" style="text;strokeColor=none;fillColor=none;align=left;verticalAlign=top;spacingLeft=4;spacingRight=4;overflow=hidden;rotatable=0;points=[[0,0.5],[1,0.5]];portConstraint=eastwest;whiteSpace=wrap;html=1;rounded=0;" parent="eLap9Rx4vX79RVpMXeGD-84" vertex="1"><mxGeometry y="788" width="200" height="26" as="geometry"/></mxCell><mxCell id="eLap9Rx4vX79RVpMXeGD-117" value="+ spawn split asteroids()" style="text;strokeColor=none;fillColor=none;align=left;verticalAlign=top;spacingLeft=4;spacingRight=4;overflow=hidden;rotatable=0;points=[[0,0.5],[1,0.5]];portConstraint=eastwest;whiteSpace=wrap;html=1;rounded=0;" parent="eLap9Rx4vX79RVpMXeGD-84" vertex="1"><mxGeometry y="814" width="200" height="26" as="geometry"/></mxCell><mxCell id="eLap9Rx4vX79RVpMXeGD-116" value="+ spawn powerup()" style="text;strokeColor=none;fillColor=none;align=left;verticalAlign=top;spacingLeft=4;spacingRight=4;overflow=hidden;rotatable=0;points=[[0,0.5],[1,0.5]];portConstraint=eastwest;whiteSpace=wrap;html=1;rounded=0;" parent="eLap9Rx4vX79RVpMXeGD-84" vertex="1"><mxGeometry y="840" width="200" height="26" as="geometry"/></mxCell><mxCell id="eLap9Rx4vX79RVpMXeGD-118" value="+ handle collisions()" style="text;strokeColor=none;fillColor=none;align=left;verticalAlign=top;spacingLeft=4;spacingRight=4;overflow=hidden;rotatable=0;points=[[0,0.5],[1,0.5]];portConstraint=eastwest;whiteSpace=wrap;html=1;rounded=0;" parent="eLap9Rx4vX79RVpMXeGD-84" vertex="1"><mxGeometry y="866" width="200" height="26" as="geometry"/></mxCell><mxCell id="eLap9Rx4vX79RVpMXeGD-120" value="Powerups" style="swimlane;fontStyle=1;align=center;verticalAlign=top;childLayout=stackLayout;horizontal=1;startSize=26;horizontalStack=0;resizeParent=1;resizeParentMax=0;resizeLast=0;collapsible=1;marginBottom=0;whiteSpace=wrap;html=1;rounded=0;" parent="1" vertex="1"><mxGeometry x="600" y="1120" width="200" height="138" as="geometry"/></mxCell><mxCell id="eLap9Rx4vX79RVpMXeGD-121" value="+ speed: int" style="text;strokeColor=none;fillColor=none;align=left;verticalAlign=top;spacingLeft=4;spacingRight=4;overflow=hidden;rotatable=0;points=[[0,0.5],[1,0.5]];portConstraint=eastwest;whiteSpace=wrap;html=1;rounded=0;" parent="eLap9Rx4vX79RVpMXeGD-120" vertex="1"><mxGeometry y="26" width="200" height="26" as="geometry"/></mxCell><mxCell id="eLap9Rx4vX79RVpMXeGD-124" value="+ hitbox: Hitbox" style="text;strokeColor=none;fillColor=none;align=left;verticalAlign=top;spacingLeft=4;spacingRight=4;overflow=hidden;rotatable=0;points=[[0,0.5],[1,0.5]];portConstraint=eastwest;whiteSpace=wrap;html=1;rounded=0;" parent="eLap9Rx4vX79RVpMXeGD-120" vertex="1"><mxGeometry y="52" width="200" height="26" as="geometry"/></mxCell><mxCell id="eLap9Rx4vX79RVpMXeGD-122" value="" style="line;strokeWidth=1;fillColor=none;align=left;verticalAlign=middle;spacingTop=-1;spacingLeft=3;spacingRight=3;rotatable=0;labelPosition=right;points=[];portConstraint=eastwest;strokeColor=inherit;rounded=0;" parent="eLap9Rx4vX79RVpMXeGD-120" vertex="1"><mxGeometry y="78" width="200" height="8" as="geometry"/></mxCell><mxCell id="eLap9Rx4vX79RVpMXeGD-123" value="+ set position(x:float, y:float)" style="text;strokeColor=none;fillColor=none;align=left;verticalAlign=top;spacingLeft=4;spacingRight=4;overflow=hidden;rotatable=0;points=[[0,0.5],[1,0.5]];portConstraint=eastwest;whiteSpace=wrap;html=1;rounded=0;" parent="eLap9Rx4vX79RVpMXeGD-120" vertex="1"><mxGeometry y="86" width="200" height="26" as="geometry"/></mxCell><mxCell id="eLap9Rx4vX79RVpMXeGD-125" value="+ move(x:float, y:float)" style="text;strokeColor=none;fillColor=none;align=left;verticalAlign=top;spacingLeft=4;spacingRight=4;overflow=hidden;rotatable=0;points=[[0,0.5],[1,0.5]];portConstraint=eastwest;whiteSpace=wrap;html=1;rounded=0;" parent="eLap9Rx4vX79RVpMXeGD-120" vertex="1"><mxGeometry y="112" width="200" height="26" as="geometry"/></mxCell><mxCell id="eLap9Rx4vX79RVpMXeGD-126" value="Rocket Powerup" style="swimlane;fontStyle=1;align=center;verticalAlign=top;childLayout=stackLayout;horizontal=1;startSize=26;horizontalStack=0;resizeParent=1;resizeParentMax=0;resizeLast=0;collapsible=1;marginBottom=0;whiteSpace=wrap;html=1;rounded=0;" parent="1" vertex="1"><mxGeometry x="800" y="1320" width="160" height="34" as="geometry"/></mxCell><mxCell id="eLap9Rx4vX79RVpMXeGD-128" value="" style="line;strokeWidth=1;fillColor=none;align=left;verticalAlign=middle;spacingTop=-1;spacingLeft=3;spacingRight=3;rotatable=0;labelPosition=right;points=[];portConstraint=eastwest;strokeColor=inherit;rounded=0;" parent="eLap9Rx4vX79RVpMXeGD-126" vertex="1"><mxGeometry y="26" width="160" height="8" as="geometry"/></mxCell><mxCell id="eLap9Rx4vX79RVpMXeGD-130" value="Speed Powerup" style="swimlane;fontStyle=1;align=center;verticalAlign=top;childLayout=stackLayout;horizontal=1;startSize=26;horizontalStack=0;resizeParent=1;resizeParentMax=0;resizeLast=0;collapsible=1;marginBottom=0;whiteSpace=wrap;html=1;rounded=0;" parent="1" vertex="1"><mxGeometry x="620" y="1320" width="160" height="34" as="geometry"/></mxCell><mxCell id="eLap9Rx4vX79RVpMXeGD-131" value="" style="line;strokeWidth=1;fillColor=none;align=left;verticalAlign=middle;spacingTop=-1;spacingLeft=3;spacingRight=3;rotatable=0;labelPosition=right;points=[];portConstraint=eastwest;strokeColor=inherit;rounded=0;" parent="eLap9Rx4vX79RVpMXeGD-130" vertex="1"><mxGeometry y="26" width="160" height="8" as="geometry"/></mxCell><mxCell id="eLap9Rx4vX79RVpMXeGD-132" value="Regen Powerup" style="swimlane;fontStyle=1;align=center;verticalAlign=top;childLayout=stackLayout;horizontal=1;startSize=26;horizontalStack=0;resizeParent=1;resizeParentMax=0;resizeLast=0;collapsible=1;marginBottom=0;whiteSpace=wrap;html=1;rounded=0;" parent="1" vertex="1"><mxGeometry x="440" y="1320" width="160" height="34" as="geometry"/></mxCell><mxCell id="eLap9Rx4vX79RVpMXeGD-133" value="" style="line;strokeWidth=1;fillColor=none;align=left;verticalAlign=middle;spacingTop=-1;spacingLeft=3;spacingRight=3;rotatable=0;labelPosition=right;points=[];portConstraint=eastwest;strokeColor=inherit;rounded=0;" parent="eLap9Rx4vX79RVpMXeGD-132" vertex="1"><mxGeometry y="26" width="160" height="8" as="geometry"/></mxCell><mxCell id="eLap9Rx4vX79RVpMXeGD-134" value="Health Powerup" style="swimlane;fontStyle=1;align=center;verticalAlign=top;childLayout=stackLayout;horizontal=1;startSize=26;horizontalStack=0;resizeParent=1;resizeParentMax=0;resizeLast=0;collapsible=1;marginBottom=0;whiteSpace=wrap;html=1;rounded=0;" parent="1" vertex="1"><mxGeometry x="980" y="1320" width="160" height="34" as="geometry"/></mxCell><mxCell id="eLap9Rx4vX79RVpMXeGD-135" value="" style="line;strokeWidth=1;fillColor=none;align=left;verticalAlign=middle;spacingTop=-1;spacingLeft=3;spacingRight=3;rotatable=0;labelPosition=right;points=[];portConstraint=eastwest;strokeColor=inherit;rounded=0;" parent="eLap9Rx4vX79RVpMXeGD-134" vertex="1"><mxGeometry y="26" width="160" height="8" as="geometry"/></mxCell><mxCell id="eLap9Rx4vX79RVpMXeGD-137" value="Damage Powerup" style="swimlane;fontStyle=1;align=center;verticalAlign=top;childLayout=stackLayout;horizontal=1;startSize=26;horizontalStack=0;resizeParent=1;resizeParentMax=0;resizeLast=0;collapsible=1;marginBottom=0;whiteSpace=wrap;html=1;rounded=0;" parent="1" vertex="1"><mxGeometry x="260" y="1320" width="160" height="34" as="geometry"/></mxCell><mxCell id="eLap9Rx4vX79RVpMXeGD-138" value="" style="line;strokeWidth=1;fillColor=none;align=left;verticalAlign=middle;spacingTop=-1;spacingLeft=3;spacingRight=3;rotatable=0;labelPosition=right;points=[];portConstraint=eastwest;strokeColor=inherit;rounded=0;" parent="eLap9Rx4vX79RVpMXeGD-137" vertex="1"><mxGeometry y="26" width="160" height="8" as="geometry"/></mxCell><mxCell id="eLap9Rx4vX79RVpMXeGD-139" value="Triple Powerup" style="swimlane;fontStyle=1;align=center;verticalAlign=top;childLayout=stackLayout;horizontal=1;startSize=26;horizontalStack=0;resizeParent=1;resizeParentMax=0;resizeLast=0;collapsible=1;marginBottom=0;whiteSpace=wrap;html=1;rounded=0;" parent="1" vertex="1"><mxGeometry x="1160" y="1320" width="160" height="34" as="geometry"/></mxCell><mxCell id="eLap9Rx4vX79RVpMXeGD-140" value="" style="line;strokeWidth=1;fillColor=none;align=left;verticalAlign=middle;spacingTop=-1;spacingLeft=3;spacingRight=3;rotatable=0;labelPosition=right;points=[];portConstraint=eastwest;strokeColor=inherit;rounded=0;" parent="eLap9Rx4vX79RVpMXeGD-139" vertex="1"><mxGeometry y="26" width="160" height="8" as="geometry"/></mxCell><mxCell id="eLap9Rx4vX79RVpMXeGD-142" value="" style="endArrow=block;endSize=16;endFill=0;html=1;rounded=0;exitX=0.5;exitY=0;exitDx=0;exitDy=0;" parent="1" source="eLap9Rx4vX79RVpMXeGD-130" target="eLap9Rx4vX79RVpMXeGD-125" edge="1"><mxGeometry x="-0.75" y="10" width="160" relative="1" as="geometry"><mxPoint x="551" y="1320" as="sourcePoint"/><mxPoint x="550" y="1228" as="targetPoint"/><mxPoint as="offset"/></mxGeometry></mxCell><mxCell id="eLap9Rx4vX79RVpMXeGD-143" value="" style="endArrow=none;html=1;rounded=0;" parent="1" edge="1"><mxGeometry width="50" height="50" relative="1" as="geometry"><mxPoint x="340" y="1290" as="sourcePoint"/><mxPoint x="1240" y="1290" as="targetPoint"/></mxGeometry></mxCell><mxCell id="eLap9Rx4vX79RVpMXeGD-144" value="" style="endArrow=none;html=1;rounded=0;exitX=0.5;exitY=0;exitDx=0;exitDy=0;" parent="1" source="eLap9Rx4vX79RVpMXeGD-139" edge="1"><mxGeometry width="50" height="50" relative="1" as="geometry"><mxPoint x="1200" y="1270" as="sourcePoint"/><mxPoint x="1240" y="1290" as="targetPoint"/></mxGeometry></mxCell><mxCell id="eLap9Rx4vX79RVpMXeGD-145" value="" style="endArrow=none;html=1;rounded=0;exitX=0.5;exitY=0;exitDx=0;exitDy=0;" parent="1" edge="1"><mxGeometry width="50" height="50" relative="1" as="geometry"><mxPoint x="1059.66" y="1320" as="sourcePoint"/><mxPoint x="1059.66" y="1290" as="targetPoint"/></mxGeometry></mxCell><mxCell id="eLap9Rx4vX79RVpMXeGD-146" value="" style="endArrow=none;html=1;rounded=0;exitX=0.5;exitY=0;exitDx=0;exitDy=0;" parent="1" edge="1"><mxGeometry width="50" height="50" relative="1" as="geometry"><mxPoint x="879.6600000000001" y="1320" as="sourcePoint"/><mxPoint x="879.6600000000001" y="1290" as="targetPoint"/></mxGeometry></mxCell><mxCell id="eLap9Rx4vX79RVpMXeGD-147" value="" style="endArrow=none;html=1;rounded=0;exitX=0.5;exitY=0;exitDx=0;exitDy=0;" parent="1" edge="1"><mxGeometry width="50" height="50" relative="1" as="geometry"><mxPoint x="519.6600000000001" y="1320" as="sourcePoint"/><mxPoint x="519.6600000000001" y="1290" as="targetPoint"/></mxGeometry></mxCell><mxCell id="eLap9Rx4vX79RVpMXeGD-148" value="" style="endArrow=none;html=1;rounded=0;exitX=0.5;exitY=0;exitDx=0;exitDy=0;" parent="1" edge="1"><mxGeometry width="50" height="50" relative="1" as="geometry"><mxPoint x="339.6600000000001" y="1320" as="sourcePoint"/><mxPoint x="339.6600000000001" y="1290" as="targetPoint"/></mxGeometry></mxCell><mxCell id="eLap9Rx4vX79RVpMXeGD-149" value="" style="endArrow=diamondThin;endFill=1;endSize=24;html=1;rounded=0;exitX=1;exitY=0.5;exitDx=0;exitDy=0;" parent="1" source="eLap9Rx4vX79RVpMXeGD-65" edge="1"><mxGeometry width="160" relative="1" as="geometry"><mxPoint x="110" y="780" as="sourcePoint"/><mxPoint x="320" y="560" as="targetPoint"/></mxGeometry></mxCell><mxCell id="eLap9Rx4vX79RVpMXeGD-150" value="1" style="edgeLabel;html=1;align=center;verticalAlign=middle;resizable=0;points=[];rounded=0;" parent="eLap9Rx4vX79RVpMXeGD-149" vertex="1" connectable="0"><mxGeometry x="-0.467" y="1" relative="1" as="geometry"><mxPoint x="-11" y="-10" as="offset"/></mxGeometry></mxCell><mxCell id="eLap9Rx4vX79RVpMXeGD-152" value="" style="endArrow=diamondThin;endFill=1;endSize=24;html=1;rounded=0;exitX=0;exitY=0.5;exitDx=0;exitDy=0;entryX=1;entryY=0.5;entryDx=0;entryDy=0;" parent="1" edge="1"><mxGeometry width="160" relative="1" as="geometry"><mxPoint x="600" y="170" as="sourcePoint"/><mxPoint x="520.0000000000001" y="170" as="targetPoint"/></mxGeometry></mxCell><mxCell id="eLap9Rx4vX79RVpMXeGD-153" value="1" style="edgeLabel;html=1;align=center;verticalAlign=middle;resizable=0;points=[];rounded=0;" parent="eLap9Rx4vX79RVpMXeGD-152" vertex="1" connectable="0"><mxGeometry x="-0.467" y="1" relative="1" as="geometry"><mxPoint x="11" y="-14" as="offset"/></mxGeometry></mxCell><mxCell id="eLap9Rx4vX79RVpMXeGD-154" value="" style="endArrow=diamondThin;endFill=0;endSize=24;html=1;rounded=0;entryX=1;entryY=0.5;entryDx=0;entryDy=0;exitX=0;exitY=0.5;exitDx=0;exitDy=0;" parent="1" source="gEE5Lv9PwWFWXy02JMvF-2" target="eLap9Rx4vX79RVpMXeGD-32" edge="1"><mxGeometry width="160" relative="1" as="geometry"><mxPoint x="870" y="110" as="sourcePoint"/><mxPoint x="1030" y="110" as="targetPoint"/></mxGeometry></mxCell><mxCell id="eLap9Rx4vX79RVpMXeGD-155" value="1" style="edgeLabel;html=1;align=center;verticalAlign=middle;resizable=0;points=[];rounded=0;" parent="eLap9Rx4vX79RVpMXeGD-154" vertex="1" connectable="0"><mxGeometry x="-0.6649" y="-4" relative="1" as="geometry"><mxPoint x="44" y="-9" as="offset"/></mxGeometry></mxCell><mxCell id="eLap9Rx4vX79RVpMXeGD-156" value="" style="endArrow=diamondThin;endFill=0;endSize=24;html=1;rounded=0;entryX=1;entryY=0.5;entryDx=0;entryDy=0;exitX=0;exitY=0.069;exitDx=0;exitDy=0;exitPerimeter=0;" parent="1" source="gEE5Lv9PwWFWXy02JMvF-31" target="eLap9Rx4vX79RVpMXeGD-104" edge="1"><mxGeometry width="160" relative="1" as="geometry"><mxPoint x="560" y="510" as="sourcePoint"/><mxPoint x="720" y="510" as="targetPoint"/></mxGeometry></mxCell><mxCell id="eLap9Rx4vX79RVpMXeGD-157" value="*" style="edgeLabel;html=1;align=center;verticalAlign=middle;resizable=0;points=[];rounded=0;" parent="eLap9Rx4vX79RVpMXeGD-156" vertex="1" connectable="0"><mxGeometry x="-0.3536" y="-1" relative="1" as="geometry"><mxPoint x="16" y="-11" as="offset"/></mxGeometry></mxCell><mxCell id="eLap9Rx4vX79RVpMXeGD-158" value="" style="endArrow=diamondThin;endFill=0;endSize=24;html=1;rounded=0;entryX=1;entryY=0.5;entryDx=0;entryDy=0;exitX=0;exitY=0.069;exitDx=0;exitDy=0;exitPerimeter=0;" parent="1" edge="1"><mxGeometry width="160" relative="1" as="geometry"><mxPoint x="600" y="710" as="sourcePoint"/><mxPoint x="520" y="711" as="targetPoint"/></mxGeometry></mxCell><mxCell id="eLap9Rx4vX79RVpMXeGD-159" value="*" style="edgeLabel;html=1;align=center;verticalAlign=middle;resizable=0;points=[];rounded=0;" parent="eLap9Rx4vX79RVpMXeGD-158" vertex="1" connectable="0"><mxGeometry x="-0.3536" y="-1" relative="1" as="geometry"><mxPoint x="16" y="-11" as="offset"/></mxGeometry></mxCell><mxCell id="eLap9Rx4vX79RVpMXeGD-160" value="" style="endArrow=diamondThin;endFill=0;endSize=24;html=1;rounded=0;entryX=0.271;entryY=0.962;entryDx=0;entryDy=0;entryPerimeter=0;" parent="1" edge="1"><mxGeometry width="160" relative="1" as="geometry"><mxPoint x="370" y="1180.99" as="sourcePoint"/><mxPoint x="370.20000000000005" y="932.002" as="targetPoint"/></mxGeometry></mxCell><mxCell id="eLap9Rx4vX79RVpMXeGD-161" value="*" style="edgeLabel;html=1;align=center;verticalAlign=middle;resizable=0;points=[];rounded=0;" parent="eLap9Rx4vX79RVpMXeGD-160" vertex="1" connectable="0"><mxGeometry x="-0.3536" y="-1" relative="1" as="geometry"><mxPoint x="219" y="71" as="offset"/></mxGeometry></mxCell><mxCell id="eLap9Rx4vX79RVpMXeGD-162" value="" style="endArrow=none;html=1;rounded=0;entryX=0;entryY=0.314;entryDx=0;entryDy=0;entryPerimeter=0;" parent="1" target="eLap9Rx4vX79RVpMXeGD-124" edge="1"><mxGeometry width="50" height="50" relative="1" as="geometry"><mxPoint x="370" y="1180" as="sourcePoint"/><mxPoint x="580" y="1173.29" as="targetPoint"/></mxGeometry></mxCell><mxCell id="eLap9Rx4vX79RVpMXeGD-163" value="" style="endArrow=diamondThin;endFill=0;endSize=24;html=1;rounded=0;entryX=1;entryY=0.5;entryDx=0;entryDy=0;" parent="1" edge="1"><mxGeometry width="160" relative="1" as="geometry"><mxPoint x="1000" y="1181" as="sourcePoint"/><mxPoint x="800" y="1181" as="targetPoint"/></mxGeometry></mxCell><mxCell id="eLap9Rx4vX79RVpMXeGD-164" value="1" style="edgeLabel;html=1;align=center;verticalAlign=middle;resizable=0;points=[];rounded=0;" parent="eLap9Rx4vX79RVpMXeGD-163" vertex="1" connectable="0"><mxGeometry x="-0.3536" y="-1" relative="1" as="geometry"><mxPoint x="55" y="-607" as="offset"/></mxGeometry></mxCell><mxCell id="eLap9Rx4vX79RVpMXeGD-165" value="" style="endArrow=none;html=1;rounded=0;" parent="1" edge="1"><mxGeometry width="50" height="50" relative="1" as="geometry"><mxPoint x="1000" y="1180" as="sourcePoint"/><mxPoint x="1000" y="560" as="targetPoint"/></mxGeometry></mxCell><mxCell id="eLap9Rx4vX79RVpMXeGD-166" value="" style="endArrow=diamondThin;endFill=0;endSize=24;html=1;rounded=0;entryX=1;entryY=0.5;entryDx=0;entryDy=0;exitX=0;exitY=-0.077;exitDx=0;exitDy=0;exitPerimeter=0;" parent="1" source="eLap9Rx4vX79RVpMXeGD-50" edge="1"><mxGeometry width="160" relative="1" as="geometry"><mxPoint x="880" y="480.5" as="sourcePoint"/><mxPoint x="800" y="480" as="targetPoint"/></mxGeometry></mxCell><mxCell id="eLap9Rx4vX79RVpMXeGD-167" value="1" style="edgeLabel;html=1;align=center;verticalAlign=middle;resizable=0;points=[];rounded=0;" parent="eLap9Rx4vX79RVpMXeGD-166" vertex="1" connectable="0"><mxGeometry x="-0.3536" y="-1" relative="1" as="geometry"><mxPoint x="16" y="-11" as="offset"/></mxGeometry></mxCell><mxCell id="eLap9Rx4vX79RVpMXeGD-168" value="" style="endArrow=diamondThin;endFill=0;endSize=24;html=1;rounded=0;entryX=1;entryY=0.5;entryDx=0;entryDy=0;" parent="1" edge="1"><mxGeometry width="160" relative="1" as="geometry"><mxPoint x="940" y="690" as="sourcePoint"/><mxPoint x="800" y="690" as="targetPoint"/></mxGeometry></mxCell><mxCell id="eLap9Rx4vX79RVpMXeGD-169" value="1" style="edgeLabel;html=1;align=center;verticalAlign=middle;resizable=0;points=[];rounded=0;" parent="eLap9Rx4vX79RVpMXeGD-168" vertex="1" connectable="0"><mxGeometry x="-0.3536" y="-1" relative="1" as="geometry"><mxPoint x="36" y="-117" as="offset"/></mxGeometry></mxCell><mxCell id="eLap9Rx4vX79RVpMXeGD-170" value="" style="endArrow=none;html=1;rounded=0;" parent="1" edge="1"><mxGeometry width="50" height="50" relative="1" as="geometry"><mxPoint x="940" y="690" as="sourcePoint"/><mxPoint x="940" y="560" as="targetPoint"/></mxGeometry></mxCell><mxCell id="eLap9Rx4vX79RVpMXeGD-171" value="" style="endArrow=diamondThin;endFill=0;endSize=24;html=1;rounded=0;entryX=1;entryY=0.5;entryDx=0;entryDy=0;exitX=0;exitY=-0.077;exitDx=0;exitDy=0;exitPerimeter=0;" parent="1" edge="1"><mxGeometry width="160" relative="1" as="geometry"><mxPoint x="890" y="390" as="sourcePoint"/><mxPoint x="800" y="390" as="targetPoint"/></mxGeometry></mxCell><mxCell id="eLap9Rx4vX79RVpMXeGD-172" value="1" style="edgeLabel;html=1;align=center;verticalAlign=middle;resizable=0;points=[];rounded=0;" parent="eLap9Rx4vX79RVpMXeGD-171" vertex="1" connectable="0"><mxGeometry x="-0.3536" y="-1" relative="1" as="geometry"><mxPoint x="16" y="-11" as="offset"/></mxGeometry></mxCell></root></mxGraphModel></diagram></mxfile>